<svg id="Layer_1" data-name="Layer 1" xmlns="http://www.w3.org/2000/svg" viewBox="0 0 864 486"><defs><style>.cls-1{fill:#fff;}.cls-2,.cls-3{fill:#0b1d51;}.cls-3{font-size:26px;font-family:Heebo-Bold, Heebo;}.cls-4{font-weight:700;}.cls-5{font-family:Heebo-Medium, Heebo;}.cls-6{letter-spacing:-0.01em;}.cls-7,.cls-8{font-family:Heebo-Regular, Heebo;}.cls-8{letter-spacing:-0.02em;}</style></defs><title>1</title><rect class="cls-1" x="0.5" y="0.5" width="863" height="485"/><path d="M863,1V485H1V1H863m1-1H0V486H864V0Z"/><path class="cls-2" d="M377.16,186.67H345.48L330.62,149.5H236.38l-14.87,37.17H216.6V168.08H194.3v18.58h-4.46A17.85,17.85,0,0,0,172,204.5V313.65a18,18,0,0,0,18,18H377a18,18,0,0,0,18-18V204.5A17.85,17.85,0,0,0,377.16,186.67ZM201.73,175.52h7.43v11.15h-7.43ZM387.57,313.65A10.54,10.54,0,0,1,377,324.18H190a10.54,10.54,0,0,1-10.53-10.53V204.5a10.42,10.42,0,0,1,10.4-10.4h36.71l14.87-37.17h84.17l14.87,37.17h36.71a10.42,10.42,0,0,1,10.4,10.4Z"/><path class="cls-2" d="M283.5,183a66.9,66.9,0,1,0,66.9,66.9A67,67,0,0,0,283.5,183Zm0,126.37A59.47,59.47,0,1,1,343,249.85,59.54,59.54,0,0,1,283.5,309.32Z"/><path class="cls-2" d="M283.5,205.25a44.6,44.6,0,1,0,44.6,44.6A44.65,44.65,0,0,0,283.5,205.25Zm0,81.77a37.17,37.17,0,1,1,37.17-37.17A37.21,37.21,0,0,1,283.5,287Z"/><path class="cls-2" d="M365.27,201.53a14.87,14.87,0,1,0,14.87,14.87A14.88,14.88,0,0,0,365.27,201.53Zm0,22.3a7.43,7.43,0,1,1,7.43-7.43A7.44,7.44,0,0,1,365.27,223.83Z"/><text class="cls-3" transform="translate(438.25 221.43)"><tspan class="cls-4">What I Use:</tspan><tspan class="cls-5"><tspan x="0" y="31.2">Came</tspan><tspan class="cls-6" x="67.62" y="31.2">r</tspan><tspan x="76.58" y="31.2">a:</tspan><tspan class="cls-7" x="97.59" y="31.2" xml:space="preserve"> Nikon D3300</tspan><tspan x="0" y="62.4">Lens:</tspan><tspan class="cls-7" x="62.89" y="62.4" xml:space="preserve"> 18-55mm, 35mm</tspan><tspan x="0" y="93.6">Editing: </tspan><tspan class="cls-7" x="94.07" y="93.6">Adobe Light</tspan><tspan class="cls-8" x="233.17" y="93.6">r</tspan><tspan class="cls-7" x="241.54" y="93.6">oom</tspan></tspan></text></svg>