<?xml version="1.0" encoding="utf-8"?>
<!-- Generator: Adobe Illustrator 21.1.0, SVG Export Plug-In . SVG Version: 6.00 Build 0)  -->
<svg version="1.1" id="Capa_1" xmlns="http://www.w3.org/2000/svg" xmlns:xlink="http://www.w3.org/1999/xlink" x="0px" y="0px"
	 viewBox="0 0 512 512" style="enable-background:new 0 0 512 512;" xml:space="preserve">
<style type="text/css">
	.st0{fill:#DF871E;}
	.st1{clip-path:url(#SVGID_2_);fill:#999999;}
	.st2{fill:#5E3C16;}
	.st3{fill:#472E11;}
	.st4{fill:none;}
</style>
<circle class="st0" cx="256" cy="256" r="256"/>
<g>
	<defs>
		<path id="SVGID_1_" d="M269.4,148.7c-4.5,0-8.9,0-13.4,0V-28.2h49C293.1,30.7,281.3,89.7,269.4,148.7z"/>
	</defs>
	<clipPath id="SVGID_2_">
		<use xlink:href="#SVGID_1_"  style="overflow:visible;"/>
	</clipPath>
	<circle class="st1" cx="254.1" cy="256" r="256"/>
</g>
<g>
	<circle class="st2" cx="255.5" cy="256" r="222.3"/>
	<path class="st3" d="M477.1,238.6l-89.9-89.9h-41v37.9l21,21h-21V242l-93.3-93.3h-45.7l-83.3,213.9L239,477.6
		c5.5,0.4,11,0.6,16.5,0.6c122.7,0,222.3-99.5,222.3-222.3C477.8,250.1,477.5,244.3,477.1,238.6z"/>
	<g>
		<path class="st0" d="M338.5,362.5h-47L272.8,314h-85.5l-17.7,48.6h-45.8l83.3-213.9h45.7L338.5,362.5z M259,277.9l-29.5-79.4
			l-28.9,79.4H259z"/>
		<path class="st0" d="M346.1,186.6v-37.9h41v37.9H346.1z M346.1,362.5V207.6h41v154.9L346.1,362.5L346.1,362.5z"/>
	</g>
</g>
<rect class="st4" width="512" height="512"/>
</svg>
