<?xml version="1.0" encoding="utf-8"?>
<!-- Generator: Adobe Illustrator 21.1.0, SVG Export Plug-In . SVG Version: 6.00 Build 0)  -->
<svg version="1.1" id="Capa_1" xmlns="http://www.w3.org/2000/svg" xmlns:xlink="http://www.w3.org/1999/xlink" x="0px" y="0px"
	 viewBox="0 0 512 512" style="enable-background:new 0 0 512 512;" xml:space="preserve">
<style type="text/css">
	.st0{fill:#DF3A5C;}
	.st1{clip-path:url(#SVGID_2_);fill:#999999;}
	.st2{fill:#4F3030;}
	.st3{fill:#241616;}
</style>
<circle class="st0" cx="255" cy="256" r="256"/>
<g id="Layer_2">
	<g>
		<defs>
			<rect id="SVGID_1_" x="255" y="-47" width="281" height="302"/>
		</defs>
		<clipPath id="SVGID_2_">
			<use xlink:href="#SVGID_1_"  style="overflow:visible;"/>
		</clipPath>
		<circle class="st1" cx="255" cy="255" r="256"/>
	</g>
</g>
<circle class="st2" cx="255" cy="256" r="232.5"/>
<path class="st3" d="M234.7,487.6c6.7,0.6,13.5,0.9,20.3,0.9c128.4,0,232.5-104.1,232.5-232.5c0-7.6-0.4-15.1-1.1-22.5L380.7,127.7
	h-48.8v91.7c-15-17.1-32.9-25.7-53.5-25.7c-9.8,0-18.8,1.5-27.1,4.6l-70.6-70.6h-51.4v254.5L234.7,487.6z"/>
<g>
	<path class="st0" d="M129.3,382.3V127.7h51.4v254.5L129.3,382.3L129.3,382.3z"/>
	<path class="st0" d="M380.7,382.3h-45.3v-27.1c-15.2,21.3-37.1,31.3-57.6,31.3c-21.2,0-39.3-8.5-54.4-25.6
		c-15.1-17.1-22.7-40.9-22.7-71.5c0-31.3,7.3-55,22.1-71.3c14.7-16.3,33.3-24.4,55.7-24.4c20.6,0,38.4,8.6,53.5,25.7v-91.7h48.8
		L380.7,382.3L380.7,382.3z M250.5,286.1c0,19.7,2.7,33.9,8.2,42.7c7.9,12.7,18.9,19.1,33,19.1c11.2,0,20.8-4.8,28.6-14.3
		c7.9-9.5,11.8-23.8,11.8-42.8c0-21.2-3.8-36.4-11.5-45.8c-7.6-9.3-17.4-14-29.3-14c-11.6,0-21.3,4.6-29.1,13.8
		C254.4,254,250.5,267.8,250.5,286.1z"/>
</g>
</svg>
