<?xml version="1.0" encoding="utf-8"?>
<!-- Generator: Adobe Illustrator 21.1.0, SVG Export Plug-In . SVG Version: 6.00 Build 0)  -->
<svg version="1.1" xmlns="http://www.w3.org/2000/svg" xmlns:xlink="http://www.w3.org/1999/xlink" x="0px" y="0px"
	 viewBox="0 0 512 512" style="enable-background:new 0 0 512 512;" xml:space="preserve">
<style type="text/css">
	.st0{fill:#C9E1F6;}
	.st1{clip-path:url(#SVGID_2_);fill:#999999;}
	.st2{fill:#263364;}
	.st3{fill:#151F45;}
</style>
<g id="Layer_2">
	<circle class="st0" cx="255" cy="255" r="256"/>
	<g>
		<defs>
			<path id="SVGID_1_" d="M262,257c89.7,64.7,179.3,129.3,269,194c5.3-159.3,10.7-318.7,16-478H256C258,67.7,260,162.3,262,257z"/>
		</defs>
		<clipPath id="SVGID_2_">
			<use xlink:href="#SVGID_1_"  style="overflow:visible;"/>
		</clipPath>
		<circle class="st1" cx="255" cy="255" r="256"/>
	</g>
</g>
<g id="Capa_1">
	<circle class="st2" cx="255" cy="255" r="232.5"/>
	<path class="st3" d="M347.6,205c-2.8,1.8-5.8,4.5-8.9,8.2l-9.8-9.8h-40.5v68L159.7,142.6h-45.9V368l118.4,118.4
		c7.4,0.7,14.9,1.1,22.4,1.1C369,487.5,464,405,483.5,296.3l-88.4-88.4C380.8,199.4,361.7,196,347.6,205z"/>
	<g>
		<path class="st0" d="M113.8,368V142.6h45.9v187.1h114.1V368L113.8,368L113.8,368z"/>
		<path class="st0" d="M332,368h-43.6V203.4h40.5v23.4c6.9-11.1,13.1-18.3,18.7-21.9c14.1-9,33.2-5.6,47.5,2.9l-13.5,38
			c-11.8-7.7-25.5-10.4-36-2.1c-4.2,3.4-7.6,9.4-10,18.2C331.2,278.1,332,318.2,332,368z"/>
	</g>
</g>
</svg>
