<?xml version="1.0" encoding="utf-8"?>
<!-- Generator: Adobe Illustrator 21.1.0, SVG Export Plug-In . SVG Version: 6.00 Build 0)  -->
<svg version="1.1" xmlns="http://www.w3.org/2000/svg" xmlns:xlink="http://www.w3.org/1999/xlink" x="0px" y="0px"
	 viewBox="0 0 512 512" style="enable-background:new 0 0 512 512;" xml:space="preserve">
<style type="text/css">
	.st0{fill:#76C8DA;}
	.st1{clip-path:url(#SVGID_2_);fill:#999999;}
	.st2{fill:#2A4997;}
	.st3{fill:#263364;}
</style>
<g id="Layer_2">
	<circle class="st0" cx="255" cy="255" r="256"/>
	<g>
		<defs>
			<path id="SVGID_1_" d="M291,156c-11.7,0-23.3,0-35,0V-24h103C336.3,36,313.7,96,291,156z"/>
		</defs>
		<clipPath id="SVGID_2_">
			<use xlink:href="#SVGID_1_"  style="overflow:visible;"/>
		</clipPath>
		<circle class="st1" cx="255" cy="255" r="256"/>
	</g>
</g>
<g id="Capa_1">
	<g>
		<circle class="st2" cx="255" cy="255" r="232.5"/>
		<path class="st3" d="M333.1,204.7c-18.6,0-32.8,3.4-42.7,10.2l-44.8-44.2l0,0c-7-7.4-15.2-12.4-24.8-14.9
			c-13.8-3.7-46.7-3-113.1-3v200.5l133.9,133.9c4.4,0.3,8.9,0.4,13.4,0.4c107.6,0,198.1-73.1,224.6-172.3l-94.8-94.8l0,0
			C372.8,208.2,354.8,204.7,333.1,204.7z"/>
		<g>
			<path class="st0" d="M107.7,353.2V152.7c66.4,0,99.3-0.7,113.1,3c11.5,3,21.1,9.6,28.9,19.6c15,19.5,14.3,52.4,4.9,70.1
				c-8.5,16-22.9,26-38,29.3c-17.8,3.5-44.1,2.9-68.4,2.9v75.6L107.7,353.2L107.7,353.2z M148.2,186.6v56.9c41,0,57,1.3,66.8-13
				c6.5-9.5,6.4-24.6-1.8-33.6C202.9,185.5,191.6,186.6,148.2,186.6z"/>
			<path class="st0" d="M266.7,311.7l38.6-5.9c3.6,16.4,14.6,22.8,31,22.8c12.5,0,27.5-3.1,27.5-15.7c0-8.5-7.1-10.3-15.6-12.3
				c-31-6.8-50.6-13.1-58.9-18.7c-11.5-7.8-17.2-18.7-17.2-32.7c0-12.6,5-23.2,14.9-31.7c9.9-8.6,25.3-12.9,46.2-12.9
				c31.7,0,55.4,7.6,64.3,38.4l-36.2,6.7c-1.6-5.7-4.5-10-8.8-13c-9.9-6.9-32.6-5.2-40.3-0.3c-5.5,3.8-6.1,10.6-0.5,14.8
				c11.1,8.2,58.7,11.2,78.8,27.9c8,6.8,12,16.4,12,28.6c0,13.3-5.6,24.8-16.7,34.3c-11.1,9.6-27.6,14.4-49.4,14.4
				c-19.8,0-35.4-4-47-12C277.8,336.4,270.2,325.5,266.7,311.7z"/>
		</g>
	</g>
</g>
</svg>
