<?xml version="1.0" encoding="utf-8"?>
<!-- Generator: Adobe Illustrator 21.1.0, SVG Export Plug-In . SVG Version: 6.00 Build 0)  -->
<svg version="1.1" xmlns="http://www.w3.org/2000/svg" xmlns:xlink="http://www.w3.org/1999/xlink" x="0px" y="0px"
	 viewBox="0 0 512 512" style="enable-background:new 0 0 512 512;" xml:space="preserve">
<style type="text/css">
	.st0{fill:#8C5BA4;}
	.st1{clip-path:url(#SVGID_2_);fill:#999999;}
	.st2{fill:#3E2D66;}
	.st3{fill:#251B3D;}
</style>
<g id="Layer_2">
	<circle class="st0" cx="255" cy="255" r="256"/>
	<g>
		<defs>
			<path id="SVGID_1_" d="M567,327c-104.6-18.4-209.2-36.9-313.8-55.3c0.6-109.9,1.2-219.8,1.7-329.7h312V327z"/>
		</defs>
		<clipPath id="SVGID_2_">
			<use xlink:href="#SVGID_1_"  style="overflow:visible;"/>
		</clipPath>
		<circle class="st1" cx="255" cy="255" r="256"/>
	</g>
</g>
<g id="Capa_1">
	<g>
		<circle class="st2" cx="256" cy="256" r="232.5"/>
		<path class="st3" d="M357.7,207c-2.8,1.8-5.7,4.5-8.8,8.1l-9.7-9.7h-35.1L261.6,163l0,0c-7.7-8.1-16.9-13.5-27.4-16.2
			c-8.4-2.3-26.4-3.4-54.1-3.4h-73v225.2L225,486.4c10.1,1.3,20.5,2.1,31,2.1c116.5,0,213-85.7,229.9-197.5l-81.1-81.1
			c-9.1-5.4-18.6-8.1-28.4-8.1C369.4,201.8,363.2,203.5,357.7,207z"/>
		<g>
			<path class="st0" d="M107.2,368.6V143.4h73c27.6,0,45.7,1.1,54.1,3.4c12.9,3.4,23.7,10.7,32.4,22c8.7,11.3,13.1,25.9,13.1,43.9
				c0,13.8-2.5,25.4-7.5,34.9c-5,9.4-11.4,16.8-19.1,22.2c-7.7,5.4-15.6,8.9-23.6,10.7c-10.9,2.1-26.6,3.2-47.2,3.2h-29.6v84.9
				L107.2,368.6L107.2,368.6z M152.7,181.5v63.9h24.9c17.9,0,29.9-1.2,35.9-3.5c6-2.4,10.8-6,14.2-11.1c3.4-5,5.1-10.9,5.1-17.5
				c0-8.2-2.4-14.9-7.2-20.3c-4.8-5.3-10.9-8.7-18.3-10c-5.4-1-16.3-1.5-32.7-1.5L152.7,181.5L152.7,181.5L152.7,181.5z"/>
			<path class="st0" d="M342.3,368.6h-43.2V205.5h40.1v23.2c6.9-11,13-18.2,18.5-21.7c5.5-3.5,11.7-5.2,18.7-5.2
				c9.8,0,19.3,2.7,28.4,8.1l-13.4,37.6c-7.3-4.7-14-7.1-20.3-7.1c-6,0-11.2,1.7-15.4,5c-4.2,3.3-7.5,9.3-9.9,18
				c-2.4,8.7-3.6,26.9-3.6,54.7L342.3,368.6L342.3,368.6z"/>
		</g>
	</g>
</g>
</svg>
