<?xml version="1.0" encoding="utf-8"?>
<!-- Generator: Adobe Illustrator 21.1.0, SVG Export Plug-In . SVG Version: 6.00 Build 0)  -->
<svg version="1.1" xmlns="http://www.w3.org/2000/svg" xmlns:xlink="http://www.w3.org/1999/xlink" x="0px" y="0px"
	 viewBox="0 0 512 512" style="enable-background:new 0 0 512 512;" xml:space="preserve">
<style type="text/css">
	.st0{fill:#DA2286;}
	.st1{clip-path:url(#SVGID_2_);fill:#999999;}
	.st2{fill:#592B49;}
	.st3{fill:#291221;}
</style>
<g id="Layer_2">
	<circle class="st0" cx="255" cy="255" r="256"/>
	<g>
		<defs>
			<path id="SVGID_1_" d="M570,170c-104.7,19-209.3,38-314,57V-59h314C570,17.3,570,93.7,570,170z"/>
		</defs>
		<clipPath id="SVGID_2_">
			<use xlink:href="#SVGID_1_"  style="overflow:visible;"/>
		</clipPath>
		<circle class="st1" cx="255" cy="255" r="256"/>
	</g>
</g>
<g id="Capa_1">
	<g>
		<ellipse class="st2" cx="255" cy="255" rx="232.5" ry="232.5"/>
		<path class="st3" d="M487,239.8L407.1,160h-35.8v67.4c-11.1-12.6-24.2-18.9-39.3-18.9c-4,0-7.8,0.4-11.4,1L271,160h-43.8
			L199.1,206L153,160h-44.1l57.9,89.4L102.9,347l140.2,140.2c3.9,0.2,7.9,0.3,11.9,0.3c128.4,0,232.5-104.1,232.5-232.5
			C487.5,249.9,487.3,244.9,487,239.8z"/>
		<g>
			<path class="st0" d="M102.9,347l63.9-97.6L108.9,160H153l37.5,60.1l36.7-60.1H271l-58.2,90.8l63.9,96.2h-45.5l-41.5-64.7
				L148.2,347L102.9,347L102.9,347z"/>
			<path class="st0" d="M407.1,347h-33.3v-19.9c-5.5,7.7-12.1,13.5-19.6,17.3c-7.5,3.8-15.1,5.7-22.8,5.7c-15.6,0-28.9-6.3-40-18.8
				c-11.1-12.5-16.6-30-16.6-52.5c0-23,5.4-40.4,16.2-52.4c10.8-11.9,24.5-17.9,41-17.9c15.1,0,28.2,6.3,39.3,18.9V160h35.8
				L407.1,347L407.1,347z M311.4,276.3c0,14.5,2,24.9,6,31.4c5.8,9.4,13.9,14,24.2,14c8.2,0,15.3-3.5,21.1-10.5
				c5.8-7,8.7-17.5,8.7-31.4c0-15.6-2.8-26.8-8.4-33.6c-5.6-6.8-12.8-10.3-21.6-10.3c-8.5,0-15.6,3.4-21.4,10.1
				C314.3,252.8,311.4,262.9,311.4,276.3z"/>
		</g>
	</g>
</g>
</svg>
